<svg xmlns="http://www.w3.org/2000/svg" width="130.777" height="104.782" viewBox="0 0 130.777 104.782">
  <defs>
    <style>
      .cls-1 {
        fill: #171810;
        fill-rule: evenodd;
      }
    </style>
  </defs>
  <path id="_" data-name="ㅇ" class="cls-1" d="M999.3,440.1a25.907,25.907,0,0,1-7.1,9.9,34.178,34.178,0,0,1-12.5,6.6,62.627,62.627,0,0,1-18.5,2.4,63.408,63.408,0,0,1-18.7-2.4A34.154,34.154,0,0,1,930,450a24.956,24.956,0,0,1-7-9.9,35.484,35.484,0,0,1,0-24.6,24.956,24.956,0,0,1,7-9.9,34.154,34.154,0,0,1,12.5-6.6,63.408,63.408,0,0,1,18.7-2.4,62.627,62.627,0,0,1,18.5,2.4,34.178,34.178,0,0,1,12.5,6.6,25.907,25.907,0,0,1,7.1,9.9A34.039,34.039,0,0,1,999.3,440.1Zm23-33.1a46.319,46.319,0,0,0-12.6-16.6,60.636,60.636,0,0,0-20.6-11,91.519,91.519,0,0,0-28.3-4,88.881,88.881,0,0,0-27.9,4,60.879,60.879,0,0,0-20.4,11A45.22,45.22,0,0,0,900,407a54.1,54.1,0,0,0,0,41.8,45.2,45.2,0,0,0,12.5,16.6,59.516,59.516,0,0,0,20.4,10.9,90.971,90.971,0,0,0,27.9,3.9,93.677,93.677,0,0,0,28.3-3.9,59.31,59.31,0,0,0,20.6-10.9,46.3,46.3,0,0,0,12.6-16.6A52.941,52.941,0,0,0,1022.3,407Z" transform="translate(-895.813 -375.406)"/>
</svg>
