<svg xmlns="http://www.w3.org/2000/svg" width="130.781" height="104.782" viewBox="0 0 130.781 104.782">
  <defs>
    <style>
      .cls-1 {
        fill: #171810;
        fill-rule: evenodd;
      }
    </style>
  </defs>
  <path id="_" data-name="ㅇ" class="cls-1" d="M714.3,634.1a25.907,25.907,0,0,1-7.1,9.9,34.178,34.178,0,0,1-12.5,6.6,62.627,62.627,0,0,1-18.5,2.4,63.408,63.408,0,0,1-18.7-2.4A34.154,34.154,0,0,1,645,644a24.956,24.956,0,0,1-7-9.9,35.484,35.484,0,0,1,0-24.6,24.956,24.956,0,0,1,7-9.9,34.154,34.154,0,0,1,12.5-6.6,63.408,63.408,0,0,1,18.7-2.4,62.627,62.627,0,0,1,18.5,2.4,34.178,34.178,0,0,1,12.5,6.6,25.907,25.907,0,0,1,7.1,9.9A34.039,34.039,0,0,1,714.3,634.1Zm23-33.1a46.3,46.3,0,0,0-12.6-16.6,60.674,60.674,0,0,0-20.6-11,91.519,91.519,0,0,0-28.3-4,88.881,88.881,0,0,0-27.9,4,60.879,60.879,0,0,0-20.4,11A45.22,45.22,0,0,0,615,601a54.1,54.1,0,0,0,0,41.8,45.2,45.2,0,0,0,12.5,16.6,59.516,59.516,0,0,0,20.4,10.9,90.971,90.971,0,0,0,27.9,3.9,93.677,93.677,0,0,0,28.3-3.9,59.346,59.346,0,0,0,20.6-10.9,46.279,46.279,0,0,0,12.6-16.6A52.941,52.941,0,0,0,737.3,601Z" transform="translate(-610.813 -569.406)"/>
</svg>
