<?xml version="1.0" encoding="utf-8"?>
<!-- Generator: Adobe Illustrator 23.1.0, SVG Export Plug-In . SVG Version: 6.00 Build 0)  -->
<svg version="1.1" id="레이어_1" xmlns="http://www.w3.org/2000/svg" xmlns:xlink="http://www.w3.org/1999/xlink" x="0px"
	 y="0px" viewBox="0 0 1080 1080" enable-background="new 0 0 1080 1080" xml:space="preserve">
<g>
	<path d="M633.94,527.89c0,8.59-1.65,16.56-4.95,23.92c-3.3,7.36-8.13,13.72-14.49,19.09c-6.37,5.37-14.26,9.54-23.69,12.54
		s-20.28,4.49-32.54,4.49c-12.11,0-22.81-1.5-32.08-4.49c-9.28-2.99-17.1-7.17-23.46-12.54c-6.36-5.37-11.16-11.73-14.38-19.09
		c-3.22-7.36-4.83-15.33-4.83-23.92c0-8.74,1.61-16.79,4.83-24.15c3.22-7.36,8.01-13.72,14.38-19.09
		c6.36-5.37,14.18-9.58,23.46-12.65c9.28-3.07,19.97-4.6,32.08-4.6c12.27,0,23.12,1.53,32.54,4.6c9.43,3.07,17.33,7.28,23.69,12.65
		c6.36,5.37,11.19,11.73,14.49,19.09C632.29,511.1,633.94,519.15,633.94,527.89z M605.19,527.66c0-5.06-0.88-9.77-2.65-14.15
		c-1.76-4.37-4.48-8.17-8.16-11.39c-3.68-3.22-8.47-5.75-14.38-7.59c-5.91-1.84-13-2.76-21.28-2.76c-8.43,0-15.6,0.92-21.5,2.76
		c-5.9,1.84-10.7,4.37-14.38,7.59c-3.68,3.22-6.36,7.02-8.05,11.39c-1.69,4.37-2.53,9.08-2.53,14.15s0.84,9.77,2.53,14.15
		c1.69,4.37,4.37,8.17,8.05,11.38c3.68,3.22,8.47,5.75,14.38,7.59c5.9,1.84,13.07,2.76,21.5,2.76c8.28,0,15.37-0.92,21.28-2.76
		c5.9-1.84,10.69-4.37,14.38-7.59c3.68-3.22,6.4-7.01,8.16-11.38C604.3,537.44,605.19,532.72,605.19,527.66z"/>
</g>
<g>
</g>
<g>
</g>
<g>
</g>
<g>
</g>
</svg>
