<svg xmlns="http://www.w3.org/2000/svg" width="142.78" height="119.782" viewBox="0 0 142.78 119.782">
  <defs>
    <style>
      .cls-1 {
        fill: #171810;
        fill-rule: evenodd;
      }
    </style>
  </defs>
  <path id="_" data-name="ㅎ" class="cls-1" d="M1083.8,558.4v21.4h78.8V558.4h-78.8Zm-32,30.4v20h142.8v-20H1051.8Zm125.4,45.5a30.7,30.7,0,0,0-10.8-9.6,64.869,64.869,0,0,0-18.1-6.5,118.608,118.608,0,0,0-25.3-2.4,117.17,117.17,0,0,0-25.2,2.4,64.949,64.949,0,0,0-18,6.5,30.7,30.7,0,0,0-10.8,9.6,21.319,21.319,0,0,0-3.6,11.9,22.28,22.28,0,0,0,3.6,12.1,33.3,33.3,0,0,0,10.8,10.2,60.684,60.684,0,0,0,18,7.1,123.423,123.423,0,0,0,50.4,0,62.148,62.148,0,0,0,18.1-7.1,33,33,0,0,0,10.9-10.2,22.28,22.28,0,0,0,3.6-12.1A21.319,21.319,0,0,0,1177.2,634.3Zm-22.4,17.3a12.975,12.975,0,0,1-5.4,4.2,40.173,40.173,0,0,1-10.2,2.9,98.4,98.4,0,0,1-16.2,1.1,96.859,96.859,0,0,1-16-1.1,40.173,40.173,0,0,1-10.2-2.9,12.975,12.975,0,0,1-5.4-4.2,8.859,8.859,0,0,1-1.6-5,9.34,9.34,0,0,1,1.6-5.1,12.6,12.6,0,0,1,5.4-4.3,40.255,40.255,0,0,1,10.2-2.9,97.078,97.078,0,0,1,16-1.1,98.617,98.617,0,0,1,16.2,1.1,37.389,37.389,0,0,1,10.2,3,13.668,13.668,0,0,1,5.4,4.3A8.613,8.613,0,0,1,1154.8,651.6Z" transform="translate(-1051.81 -558.406)"/>
</svg>
