<?xml version="1.0" encoding="utf-8"?>
<!-- Generator: Adobe Illustrator 23.1.0, SVG Export Plug-In . SVG Version: 6.00 Build 0)  -->
<svg version="1.1" id="레이어_1" xmlns="http://www.w3.org/2000/svg" xmlns:xlink="http://www.w3.org/1999/xlink" x="0px"
	 y="0px" viewBox="0 0 1080 1080" enable-background="new 0 0 1080 1080" xml:space="preserve">
<rect x="457" y="493" width="164" height="23"/>
<rect x="493" y="458" width="91" height="25"/>
<path d="M605.17,558.96c0,4.91-1.38,9.54-4.14,13.92c-2.76,4.37-6.94,8.28-12.54,11.73c-5.6,3.45-12.53,6.17-20.81,8.16
	c-8.28,2-17.94,2.99-28.98,2.99c-11.04,0-20.7-1-28.98-2.99c-8.28-1.99-15.18-4.71-20.7-8.16c-5.52-3.45-9.66-7.36-12.42-11.73
	s-4.14-9.01-4.14-13.92c0-4.91,1.38-9.47,4.14-13.68c2.76-4.22,6.9-7.9,12.42-11.04c5.52-3.14,12.42-5.63,20.7-7.48
	c8.28-1.84,17.94-2.76,28.98-2.76c11.04,0,20.74,0.92,29.1,2.76c8.36,1.84,15.29,4.33,20.81,7.48c5.52,3.14,9.66,6.82,12.42,11.04
	C603.79,549.49,605.17,554.05,605.17,558.96z M577.11,559.42c0-1.99-0.61-3.91-1.84-5.75c-1.23-1.84-3.3-3.49-6.21-4.95
	c-2.91-1.46-6.82-2.61-11.73-3.45c-4.91-0.84-11.12-1.27-18.63-1.27c-7.36,0-13.49,0.42-18.4,1.27c-4.91,0.84-8.82,1.96-11.73,3.33
	c-2.91,1.38-4.98,3.03-6.21,4.95c-1.23,1.92-1.84,3.88-1.84,5.87c0,1.99,0.61,3.91,1.84,5.75c1.23,1.84,3.3,3.45,6.21,4.83
	c2.91,1.38,6.82,2.49,11.73,3.33c4.91,0.84,11.04,1.26,18.4,1.26c7.51,0,13.72-0.42,18.63-1.26c4.91-0.84,8.82-1.96,11.73-3.33
	c2.91-1.38,4.98-2.99,6.21-4.83C576.5,563.33,577.11,561.41,577.11,559.42z"/>
<g>
</g>
<g>
</g>
<g>
</g>
<g>
</g>
</svg>
