<svg xmlns="http://www.w3.org/2000/svg" viewBox="0 0 164 137.76"><defs><style>.cls-1{fill:#231815;}</style></defs><title>Re_Logo1a자산 1</title><g id="레이어_2" data-name="레이어 2"><g id="레이어_1-2" data-name="레이어 1"><path class="cls-1" d="M164,35V58H0V35Z"/><path class="cls-1" d="M127,0V25H36V0Z"/><path class="cls-1" d="M148.17,101A25.6,25.6,0,0,1,144,114.87q-4.14,6.55-12.53,11.73a71.45,71.45,0,0,1-20.82,8.17,124.93,124.93,0,0,1-29,3,124.93,124.93,0,0,1-29-3A69.74,69.74,0,0,1,32,126.6,38.29,38.29,0,0,1,19.6,114.87,25.6,25.6,0,0,1,15.46,101,24.53,24.53,0,0,1,19.6,87.27,35.42,35.42,0,0,1,32,76.23a74.75,74.75,0,0,1,20.7-7.47A134.75,134.75,0,0,1,81.7,66a136.44,136.44,0,0,1,29.1,2.76,74.63,74.63,0,0,1,20.81,7.47,35.42,35.42,0,0,1,12.42,11A24.53,24.53,0,0,1,148.17,101Zm-28.06.46a10.2,10.2,0,0,0-1.84-5.75,15.59,15.59,0,0,0-6.21-5,43.43,43.43,0,0,0-11.73-3.45A113.5,113.5,0,0,0,81.7,86a111.9,111.9,0,0,0-18.4,1.26,46.66,46.66,0,0,0-11.73,3.34,14.52,14.52,0,0,0-6.21,4.94,10.85,10.85,0,0,0-1.84,5.87,10.28,10.28,0,0,0,1.84,5.75A14.91,14.91,0,0,0,51.57,112a46.28,46.28,0,0,0,11.73,3.33,110.67,110.67,0,0,0,18.4,1.27,112.26,112.26,0,0,0,18.63-1.27A46.16,46.16,0,0,0,112.06,112a14.78,14.78,0,0,0,6.21-4.83A10.2,10.2,0,0,0,120.11,101.42Z"/></g></g></svg>